<svg width="18" height="14" viewBox="0 0 18 14" fill="none" xmlns="http://www.w3.org/2000/svg">
<path d="M14.0154 1.23857C14.2327 1.23857 14.3956 1.17338 14.5043 1.043C14.6129 0.912629 14.6673 0.760524 14.6673 0.58669C14.6673 0.412856 14.6129 0.271615 14.5043 0.16297C14.3956 0.0543232 14.2327 0 14.0154 0H3.06383C2.84654 0 2.68357 0.0543232 2.57492 0.16297C2.46627 0.271615 2.41195 0.412856 2.41195 0.58669C2.41195 0.760524 2.46627 0.912629 2.57492 1.043C2.68357 1.17338 2.84654 1.23857 3.06383 1.23857H14.0154ZM14.0154 13.4287C14.2327 13.4287 14.3956 13.3744 14.5043 13.2657C14.6129 13.1571 14.6673 13.0158 14.6673 12.842C14.6673 12.6682 14.6129 12.5161 14.5043 12.3857C14.3956 12.2553 14.2327 12.1901 14.0154 12.1901H3.06383C2.84654 12.1901 2.68357 12.2553 2.57492 12.3857C2.46627 12.5161 2.41195 12.6682 2.41195 12.842C2.41195 13.0158 2.46627 13.1571 2.57492 13.2657C2.68357 13.3744 2.84654 13.4287 3.06383 13.4287H14.0154ZM16.4925 6.12766H0.58669C0.412856 6.12766 0.271616 6.18198 0.16297 6.29062C0.0543232 6.39927 0 6.54051 0 6.71435C0 6.88818 0.0543232 7.02942 0.16297 7.13807C0.271616 7.24671 0.412856 7.30104 0.58669 7.30104H16.4925C16.6664 7.30104 16.8076 7.24671 16.9162 7.13807C17.0249 7.02942 17.0792 6.88818 17.0792 6.71435C17.0792 6.54051 17.0249 6.39927 16.9162 6.29062C16.8076 6.18198 16.6664 6.12766 16.4925 6.12766Z" fill="#111111"/>
</svg>
